<?xml version="1.0" encoding="utf-8"?>
<!-- Generator: Adobe Illustrator 23.0.2, SVG Export Plug-In . SVG Version: 6.00 Build 0)  -->
<svg version="1.1" id="Слой_1" xmlns="http://www.w3.org/2000/svg" xmlns:xlink="http://www.w3.org/1999/xlink" x="0px" y="0px"
	 viewBox="0 0 433.8 189.8" style="enable-background:new 0 0 433.8 189.8;" xml:space="preserve">
<style type="text/css">
	.st0{clip-path:url(#SVGID_2_);fill:#4D4D4D;}
	.st1{clip-path:url(#SVGID_2_);fill:none;stroke:#4D4D4D;stroke-width:8;stroke-miterlimit:10;}
</style>
<g>
	<defs>
		<rect id="SVGID_1_" width="433.8" height="189.8"/>
	</defs>
	<clipPath id="SVGID_2_">
		<use xlink:href="#SVGID_1_"  style="overflow:visible;"/>
	</clipPath>
	<path class="st0" d="M295.5,83.2h-10.7c-2.5,0-4.5,2-4.5,4.5c0,2.5,2,4.5,4.5,4.5h10.7c2.5,0,4.5-2,4.5-4.5
		C300,85.2,298,83.2,295.5,83.2"/>
	<path class="st0" d="M295.5,101.2h-10.7c-2.5,0-4.5,2-4.5,4.5c0,2.5,2,4.5,4.5,4.5h10.7c2.5,0,4.5-2,4.5-4.5
		C300,103.2,298,101.2,295.5,101.2"/>
	<path class="st0" d="M349.6,120.7c-12.7,0-23,10.3-23,23c0,12.7,10.3,23,23,23c12.7,0,23-10.3,23-23
		C372.6,131,362.3,120.7,349.6,120.7 M349.6,157.6c-7.7,0-14-6.3-14-14c0-7.7,6.3-14,14-14c7.7,0,14,6.3,14,14
		C363.6,151.4,357.3,157.6,349.6,157.6"/>
	<path class="st0" d="M431.8,109.6l-5.7-3.9V89.1c0-2.2-1.6-4-3.7-4.4l-32.8-6V59.1c0-7.5-6.1-13.5-13.5-13.5c-2.5,0-4.5,2-4.5,4.5
		c0,2.5,2,4.5,4.5,4.5c2.5,0,4.5,2,4.5,4.5v17.9l-29.2-5.3l-13.1-49.6h2.6c2.5,0,4.5-2,4.5-4.5c0-2.5-2-4.5-4.5-4.5h-50.3
		c-10.8,0-19.5,8.7-19.5,19.5v27.6l-10.8,7.2c-1.3,0.8-2,2.2-2,3.7v7.9h-20.1l0.3,7.5l-1.7,1.5h21.6v22.2
		c-8.2-7.7-19.2-12.5-31.3-12.5l3.9-4.5l-18.2,16.4c4.4-1.9,9.2-2.9,14.3-2.9c20.3,0,36.8,16.5,36.8,36.8
		c0,20.3-16.5,36.8-36.8,36.8c-20.3,0-36.8-16.5-36.8-36.8c0-6.5,1.7-12.5,4.6-17.8l-5.1,4.6l-6.6,0.2c-1.2,4.1-1.9,8.5-1.9,13.1
		c0,25.3,20.6,45.8,45.8,45.8c23.1,0,42.2-17.1,45.4-39.4h31.9c3.2,22.2,22.3,39.4,45.4,39.4c24.4,0,44.5-19.2,45.8-43.3l35.5-13.6
		c1.7-0.7,2.9-2.3,2.9-4.2v-15C433.8,111.9,433.1,110.5,431.8,109.6 M303.8,22.1H329l13,49h-16.3l-9.4-10.9c-0.9-1-2.1-1.6-3.4-1.6
		h-9V22.1z M280.1,32.6c0-5.8,4.7-10.5,10.5-10.5h4.1v36.5h-14.6V32.6z M349.6,180.5c-20.3,0-36.8-16.5-36.8-36.8
		c0-20.3,16.5-36.8,36.8-36.8c20.3,0,36.8,16.5,36.8,36.8C386.4,164,369.9,180.5,349.6,180.5 M424.8,125.3l-29.9,11.4
		c-3.4-22-22.4-38.9-45.3-38.9c-24.4,0-44.4,19.2-45.8,43.3h-31.1c-0.4-6.9-2.3-13.4-5.4-19.1V73.6l8.8-5.9h34.5l9.4,10.9
		c0.9,1,2.1,1.6,3.4,1.6h23.8l69.8,12.7v15.3c0,1.5,0.7,2.9,2,3.7l5.7,3.9V125.3z"/>
	<polygon class="st0" points="229.3,82.7 229.3,81.4 224.5,87 	"/>
	<path class="st0" d="M187.7,120.1l20-18C199.4,105.9,192.4,112.2,187.7,120.1"/>
	<path class="st0" d="M227,166.6c12.7,0,23-10.3,23-23c0-12.7-10.3-23-23-23c-12.7,0-23,10.3-23,23C204,156.3,214.3,166.6,227,166.6
		 M227,129.7c7.7,0,14,6.3,14,14c0,7.7-6.3,14-14,14c-7.7,0-14-6.3-14-14C213,135.9,219.3,129.7,227,129.7"/>
	<path class="st0" d="M87,120.7c-3.7,0-7.1,0.9-10.2,2.4l20.7,0.2C94.3,121.6,90.8,120.7,87,120.7"/>
	<path class="st0" d="M101,143.7c0,7.7-6.3,14-14,14c-7.7,0-14-6.3-14-14c0-4.8,2.4-9.1,6.1-11.6l-12-0.1c-2,3.4-3.2,7.4-3.2,11.7
		c0,12.7,10.3,23,23,23c12.7,0,23-10.3,23-23c0-4.1-1.1-8-3-11.4l-12-0.1C98.6,134.7,101,138.9,101,143.7"/>
	<path class="st0" d="M127.9,132.4l-4.6,0c1.1,3.6,1.8,7.3,1.8,11.3c0,20.4-16.6,37.1-37.1,37.1c-20.4,0-37.1-16.6-37.1-37.1
		c0-4.1,0.7-8.1,1.9-11.8l-9.4-0.1c-1,3.8-1.6,7.8-1.6,11.9c0,25.4,20.7,46.1,46.1,46.1c25.4,0,46.1-20.7,46.1-46.1
		c0-3.9-0.5-7.8-1.4-11.4L127.9,132.4L127.9,132.4z"/>
	<path class="st0" d="M88,97.6c-17.9,0-33.5,10.3-41.1,25.3l10.4,0.1c6.7-9.8,18-16.3,30.7-16.3c13,0,24.4,6.7,31,16.8l8.8,0.1
		l1.5-0.1C121.8,108.1,106.1,97.6,88,97.6"/>
	<polygon class="st0" points="230.9,93.3 236.8,88.1 235.5,88.1 	"/>
	<path class="st0" d="M39.1,122.8L9.7,75.9L9.1,40.4l173.3-0.7l52.7-30l23.3-0.5v12.9l-30.1,31.1l1,28.3l0.7-0.8
		c0.9-1,2.1-1.6,3.4-1.6h4.8l-0.8-22.4l29.9-30.9V0l-34.7,0.8l-52.6,30L0,31.5l0.8,47.1l33.3,53.2l9.4,0.1c0.8-3.1,2-6.1,3.4-9
		L39.1,122.8z"/>
	<path class="st0" d="M186.1,121.5l-56.8,1.9c1.4,2.8,2.5,5.8,3.3,8.9l50.4-1.7c1.1-3.7,2.7-7.3,4.7-10.5L186.1,121.5z"/>
	<path class="st0" d="M213.4,99.9L224.5,87l-16.7,15C209.6,101.2,211.5,100.5,213.4,99.9"/>
	<path class="st0" d="M194.8,125.8c4-7.2,10.3-12.9,17.9-16.1l18.2-16.4l4.6-5.3h1.3l1.7-1.5l-0.3-7.5h-4.8c-1.3,0-2.6,0.6-3.4,1.6
		l-0.7,0.8l0,1.2l-4.9,4.4l-11.1,12.8c-2,0.6-3.8,1.3-5.7,2.2l-20,18c-2,3.3-3.6,6.8-4.7,10.5l6.6-0.2L194.8,125.8z"/>
	<path class="st0" d="M67.2,132l12,0.1c2.2-1.5,4.9-2.4,7.8-2.4c3,0,5.7,0.9,8,2.5l12,0.1c-2.2-3.9-5.5-7-9.5-9.1l-20.7-0.2
		C72.8,125.1,69.4,128.2,67.2,132"/>
	<path class="st0" d="M127.8,123.4l-8.9-0.1c1.8,2.8,3.3,5.8,4.3,9l4.6,0l0.1,0l4.7-0.2c-0.8-3.1-1.9-6.1-3.3-8.9L127.8,123.4z"/>
	<path class="st0" d="M57.3,122.9l-10.4-0.1c-1.4,2.8-2.6,5.8-3.4,9l9.4,0.1C53.9,128.7,55.4,125.7,57.3,122.9"/>
	<line class="st1" x1="233.9" y1="84.6" x2="11.9" y2="88.3"/>
	<path class="st0" d="M62.2,88.6L62.2,88.6c-2.8,0-5-2.2-5-5v-19c0-2.8,2.2-5,5-5c2.8,0,5,2.2,5,5v19C67.2,86.4,65,88.6,62.2,88.6"
		/>
	<path class="st0" d="M82.2,88.6L82.2,88.6c-2.8,0-5-2.2-5-5v-19c0-2.8,2.2-5,5-5c2.8,0,5,2.2,5,5v19C87.2,86.4,85,88.6,82.2,88.6"
		/>
	<path class="st0" d="M102.2,88.6L102.2,88.6c-2.8,0-5-2.2-5-5v-19c0-2.8,2.2-5,5-5c2.8,0,5,2.2,5,5v19
		C107.2,86.4,105,88.6,102.2,88.6"/>
	<path class="st0" d="M122.2,88.6L122.2,88.6c-2.8,0-5-2.2-5-5v-19c0-2.8,2.2-5,5-5c2.8,0,5,2.2,5,5v19
		C127.2,86.4,125,88.6,122.2,88.6"/>
	<path class="st0" d="M142.2,88.6L142.2,88.6c-2.8,0-5-2.2-5-5v-19c0-2.8,2.2-5,5-5c2.8,0,5,2.2,5,5v19
		C147.2,86.4,145,88.6,142.2,88.6"/>
	<path class="st0" d="M162.2,88.6L162.2,88.6c-2.8,0-5-2.2-5-5v-19c0-2.8,2.2-5,5-5c2.8,0,5,2.2,5,5v19
		C167.2,86.4,165,88.6,162.2,88.6"/>
</g>
</svg>
