<?xml version="1.0" encoding="utf-8"?>
<!-- Generator: Adobe Illustrator 23.0.2, SVG Export Plug-In . SVG Version: 6.00 Build 0)  -->
<svg version="1.1" id="Слой_1" xmlns="http://www.w3.org/2000/svg" xmlns:xlink="http://www.w3.org/1999/xlink" x="0px" y="0px"
	 viewBox="0 0 292.1 176.1" style="enable-background:new 0 0 292.1 176.1;" xml:space="preserve">
<style type="text/css">
	.st0{clip-path:url(#SVGID_2_);fill:#4D4D4D;}
</style>
<g>
	<defs>
		<rect id="SVGID_1_" width="292.1" height="176.1"/>
	</defs>
	<clipPath id="SVGID_2_">
		<use xlink:href="#SVGID_1_"  style="overflow:visible;"/>
	</clipPath>
	<path class="st0" d="M281.3,79.5c1.9-8.2-2.2-16.8-10.1-20.3c-0.8-0.4-1.6-0.6-2.5-0.9l-46.5-46.5l0,0c0,0,0,0,0,0
		c-3.4-3.4-7.8-5.2-12.6-5.2c-4.8,0-9.2,1.9-12.6,5.2c0,0,0,0-0.1,0.1l-41.4,41.4L143.9,9h1.8c2.5,0,4.5-2,4.5-4.5s-2-4.5-4.5-4.5
		H95.5C84.7,0,76,8.7,76,19.5v26H18.6c-1.2,0-2.3,0.5-3.2,1.3L1.3,60.9c-0.8,0.8-1.3,2-1.3,3.2v36.4c0,1.2,0.5,2.3,1.3,3.2
		l14.1,14.1c0.8,0.8,2,1.3,3.2,1.3l18.8,0c-6.4,6-10.4,14.6-10.4,24c0,18.2,14.8,33,33,33h113.9c18.2,0,33-14.8,33-33
		s-14.8-33-33-33h-9.1l35.3-35.3c0.8-0.8,1.2-1.7,1.3-2.8l1.3-15.3l10.2-10.2l33.9,33.9c0.2,0.6,0.3,1.1,0.5,1.7
		c1.2,3,3.1,5.5,5.5,7.5l-12.2,27.6l-4.1-1.8c-2.3-1-4.9,0-5.9,2.3c-1,2.3,0,4.9,2.3,5.9l16.3,7.2c3.9,1.7,8.1,2.6,12.4,2.6h0
		c12.1,0,23-7.1,27.9-18.2C295,102.5,291.3,88.1,281.3,79.5 M260.4,83.6c-2.1-1-3.8-2.7-4.6-4.9c-0.8-2.2-0.8-4.6,0.2-6.7
		c1.4-3.2,4.6-5.2,8.1-5.2c1.2,0,2.4,0.3,3.6,0.8c4.4,2,6.5,7.2,4.5,11.6c-1.4,3.2-4.6,5.2-8.1,5.2
		C262.7,84.4,261.5,84.1,260.4,83.6 M147.6,58h-16.3l-9.4-10.9c-0.9-1-2.1-1.6-3.4-1.6h-9.8V9h26L147.6,58z M85,19.5
		C85,13.7,89.7,9,95.5,9h4.1v36.5H85V19.5z M9,98.7V66l11.5-11.5h95.9l9.4,10.9c0.9,1,2.1,1.6,3.4,1.6h19.8v22h-48.2
		c-2.5,0-4.5,2-4.5,4.5c0,2.5,2,4.5,4.5,4.5h48.2v12l-128.4,0L9,98.7z M197.9,143.1c0,13.2-10.8,24-24,24H60c-13.2,0-24-10.8-24-24
		c0-13.2,10.8-24,24-24h113.9C187.1,119.1,197.9,129.9,197.9,143.1 M195.2,51.4c-0.8,0.8-1.2,1.7-1.3,2.8l-1.3,15.3l-34.7,34.7V63.8
		l45.5-45.5c0,0,0,0,0,0c1.7-1.6,3.9-2.5,6.2-2.5c2.4,0,4.6,0.9,6.2,2.6c1.7,1.7,2.6,3.9,2.6,6.2c0,2.4-0.9,4.6-2.6,6.2L195.2,51.4z
		 M222.3,37.1c2.2-2.2,3.8-4.9,4.6-7.9l30,30c-4,1.8-7.3,4.9-9.2,9.1c0,0,0,0.1,0,0.1l-28.3-28.3L222.3,37.1z M281.2,111.5
		c-3.5,7.8-11.2,12.8-19.7,12.8c-3,0-5.9-0.6-8.7-1.9l-3.9-1.8l12.2-27.6c1,0.2,1.9,0.3,2.9,0.3c5,0,9.7-2.1,13-5.6
		C282.9,93.9,284.9,103.2,281.2,111.5"/>
	<path class="st0" d="M30.1,66.3c-2.5,0-4.5,2-4.5,4.5v10.7c0,2.5,2,4.5,4.5,4.5s4.5-2,4.5-4.5V70.8C34.6,68.3,32.6,66.3,30.1,66.3"
		/>
	<path class="st0" d="M48.1,66.3c-2.5,0-4.5,2-4.5,4.5v10.7c0,2.5,2,4.5,4.5,4.5c2.5,0,4.5-2,4.5-4.5V70.8
		C52.6,68.3,50.6,66.3,48.1,66.3"/>
	<path class="st0" d="M66.1,66.3c-2.5,0-4.5,2-4.5,4.5v10.7c0,2.5,2,4.5,4.5,4.5c2.5,0,4.5-2,4.5-4.5V70.8
		C70.6,68.3,68.6,66.3,66.1,66.3"/>
	<path class="st0" d="M60,132.3c-6,0-10.8,4.9-10.8,10.8c0,6,4.9,10.8,10.8,10.8c4.4,0,8.1-2.6,9.8-6.3h94.2
		c1.7,3.7,5.5,6.3,9.8,6.3c6,0,10.8-4.9,10.8-10.8c0-6-4.9-10.8-10.8-10.8c-4.4,0-8.1,2.6-9.8,6.3H69.8
		C68.1,134.9,64.3,132.3,60,132.3"/>
</g>
</svg>
