<?xml version="1.0" encoding="utf-8"?>
<!-- Generator: Adobe Illustrator 23.0.2, SVG Export Plug-In . SVG Version: 6.00 Build 0)  -->
<svg version="1.1" id="Слой_1" xmlns="http://www.w3.org/2000/svg" xmlns:xlink="http://www.w3.org/1999/xlink" x="0px" y="0px"
	 viewBox="0 0 224.8 166.2" style="enable-background:new 0 0 224.8 166.2;" xml:space="preserve">
<style type="text/css">
	.st0{clip-path:url(#SVGID_2_);fill:#4D4D4D;}
</style>
<g>
	<defs>
		<rect id="SVGID_1_" width="224.8" height="166.2"/>
	</defs>
	<clipPath id="SVGID_2_">
		<use xlink:href="#SVGID_1_"  style="overflow:visible;"/>
	</clipPath>
	<path class="st0" d="M220.3,143.6h-3.9l-14.6-52.1c-0.5-1.9-2.3-3.3-4.3-3.3h-4.1c-2.1,0-4.1,0.3-6,1l-9.9-15.2
		c0.6-1.7,1-3.5,1-5.4c0-8.5-7-15.5-15.5-15.5h-43.3l-8.5-6.5c-0.8-0.6-1.8-0.9-2.7-0.9H98.1L88.7,9h1.8c2.5,0,4.5-2,4.5-4.5
		c0-2.5-2-4.5-4.5-4.5H36.3c-2,0-3.8,1.4-4.4,3.3c-3.4,12.7-8.3,33.9-10.2,42.2H10.5C8,45.5,6,47.5,6,50v60.6
		c-3.8,5.7-6,12.5-6,19.8c0,19.8,16.1,35.8,35.8,35.8c19,0,34.7-14.9,35.8-33.7h15.7c1.1,18.8,16.7,33.7,35.8,33.7
		c19.8,0,35.8-16.1,35.8-35.8S142.8,94.6,123,94.6c-0.1,0-0.3,0-0.4,0L119.9,84h29.6l24.4,37.6v11.5c0,10.8,8.7,19.5,19.5,19.5h26.9
		c2.5,0,4.5-2,4.5-4.5S222.8,143.6,220.3,143.6 M115.4,61c0.8,0.6,1.8,0.9,2.7,0.9H163c3.6,0,6.5,2.9,6.5,6.5S166.6,75,163,75h-56.8
		v-6.5c0-2.5-2-4.5-4.5-4.5s-4.5,2-4.5,4.5V75h-9v-6.5c0-2.5-2-4.5-4.5-4.5s-4.5,2-4.5,4.5V75h-9v-6.5c0-2.5-2-4.5-4.5-4.5
		s-4.5,2-4.5,4.5V75h-4.8L44.3,54.5h62.6L115.4,61z M88.8,45.5H53.5V9h26L88.8,45.5z M39.8,9h4.7v36.5H31C33,37.1,36.8,20.7,39.8,9
		 M35.8,157.2C21,157.2,9,145.2,9,130.4c0-14.8,12-26.8,26.8-26.8c14.8,0,26.8,12,26.8,26.8C62.6,145.2,50.6,157.2,35.8,157.2
		 M149.8,130.4c0,14.8-12,26.8-26.8,26.8c-14.8,0-26.8-12-26.8-26.8c0-14.8,12-26.8,26.8-26.8C137.8,103.6,149.8,115.6,149.8,130.4
		 M87.9,123.5H71C67.8,107,53.2,94.6,35.8,94.6c-7.8,0-15,2.5-20.8,6.7V84h9.9c2.5,0,4.5-2,4.5-4.5c0-2.5-2-4.5-4.5-4.5H15V54.5
		h18.8l16.3,27.3c0.8,1.4,2.3,2.2,3.9,2.2h56.7l3,11.8C100.6,99.3,90.5,110.1,87.9,123.5 M174.1,105.3L160.2,84h2.8
		c3.2,0,6.1-1,8.6-2.6l8.1,12.4C176.7,96.8,174.6,100.8,174.1,105.3 M193.4,143.6c-5.8,0-10.5-4.7-10.5-10.5v-25.4
		c0-5.8,4.7-10.5,10.5-10.5h0.6l13,46.4H193.4z"/>
	<path class="st0" d="M105.2,130.4c0,9.8,8,17.8,17.8,17.8c9.8,0,17.8-8,17.8-17.8s-8-17.8-17.8-17.8
		C113.2,112.6,105.2,120.6,105.2,130.4 M131.8,130.4c0,4.9-4,8.8-8.8,8.8c-4.9,0-8.8-4-8.8-8.8c0-4.9,4-8.8,8.8-8.8
		C127.9,121.6,131.8,125.5,131.8,130.4"/>
	<path class="st0" d="M35.8,112.6c-9.8,0-17.8,8-17.8,17.8c0,9.8,8,17.8,17.8,17.8s17.8-8,17.8-17.8
		C53.6,120.6,45.6,112.6,35.8,112.6 M35.8,139.2c-4.9,0-8.8-4-8.8-8.8c0-4.9,4-8.8,8.8-8.8s8.8,4,8.8,8.8
		C44.6,135.2,40.7,139.2,35.8,139.2"/>
</g>
</svg>
