<?xml version="1.0" encoding="utf-8"?>
<!-- Generator: Adobe Illustrator 23.0.2, SVG Export Plug-In . SVG Version: 6.00 Build 0)  -->
<svg version="1.1" id="Слой_1" xmlns="http://www.w3.org/2000/svg" xmlns:xlink="http://www.w3.org/1999/xlink" x="0px" y="0px"
	 viewBox="0 0 293.1 176.6" style="enable-background:new 0 0 293.1 176.6;" xml:space="preserve">
<style type="text/css">
	.st0{clip-path:url(#SVGID_2_);fill:#4D4D4D;}
</style>
<g>
	<defs>
		<rect id="SVGID_1_" width="293.1" height="176.6"/>
	</defs>
	<clipPath id="SVGID_2_">
		<use xlink:href="#SVGID_1_"  style="overflow:visible;"/>
	</clipPath>
	<path class="st0" d="M288.6,160.4h-4l-19.5-65.2c-0.6-1.9-2.3-3.2-4.3-3.2h-4.1c-10.8,0-19.5,8.7-19.5,19.5v2.7h-12.8
		c-4.4-11.3-13-20.4-24-25.3L187.6,70c-0.8-1.2-2.2-2-3.7-2h-20.8v-5.5c0-1.2-0.5-2.4-1.4-3.2l-13-12.5c-0.8-0.8-2-1.3-3.1-1.3
		h-10.8L124.7,9h2.6c2.5,0,4.5-2,4.5-4.5s-2-4.5-4.5-4.5H77C66.3,0,57.5,8.7,57.5,19.5v26h-9V27.7c0-7.5-6.1-13.5-13.5-13.5
		c-2.5,0-4.5,2-4.5,4.5c0,2.5,2,4.5,4.5,4.5c2.5,0,4.5,2,4.5,4.5v17.8h-9.4c-10.8,0-19.5,8.7-19.5,19.5v26.7H4.5
		c-2.5,0-4.5,2-4.5,4.5V116c0,1.5,0.8,3,2.1,3.8l26.5,17c3,22.4,22.2,39.8,45.4,39.8c19.9,0,36.9-12.8,43.2-30.6h21.2
		c6.3,17.8,23.3,30.6,43.2,30.6c19.5,0,36.1-12.2,42.8-29.3h12.8v2.7c0,10.8,8.7,19.5,19.5,19.5h31.9c2.5,0,4.5-2,4.5-4.5
		S291,160.4,288.6,160.4 M181.5,77l5.5,8.2c-1.8-0.2-3.6-0.3-5.4-0.3c-6.6,0-12.9,1.4-18.6,3.9V77H181.5z M126.5,49.5l-4.5,8.5H98.5
		l-8.3-9.7V9h25.2L126.5,49.5z M66.5,19.5C66.5,13.7,71.2,9,77,9h4.1v36.5H66.5V19.5z M74,167.6c-20.3,0-36.8-16.5-36.8-36.8
		c0-20.3,16.5-36.8,36.8-36.8c20.3,0,36.8,16.5,36.8,36.8C110.9,151,94.4,167.6,74,167.6 M119.4,137c0.3-2,0.4-4.1,0.4-6.2
		c0-25.3-20.6-45.8-45.8-45.8c-23.7,0-43.2,18-45.6,41.1L9,113.5v-12.9h6.1c2.5,0,4.5-2,4.5-4.5V77.6h25.6c2.5,0,4.5-2,4.5-4.5
		c0-2.5-2-4.5-4.5-4.5H19.6V65c0-5.8,4.7-10.5,10.5-10.5h53.5L93,65.4c0.9,1,2.1,1.6,3.4,1.6h28.4c1.7,0,3.2-0.9,4-2.4l5.3-10.1h9.7
		l10.3,9.9v29.7c-1.6,1.2-3.1,2.5-4.5,3.9h-17.1c-2.5,0-4.5,2-4.5,4.5c0,2.5,2,4.5,4.5,4.5h9.9c-4.2,6.9-6.6,15-6.6,23.7
		c0,2.1,0.2,4.2,0.4,6.2H119.4z M181.7,167.6c-20.3,0-36.8-16.5-36.8-36.8c0-20.3,16.5-36.8,36.8-36.8s36.8,16.5,36.8,36.8
		C218.5,151,202,167.6,181.7,167.6 M226.9,138.2c0.4-2.4,0.6-4.9,0.6-7.5c0-2.6-0.2-5.1-0.6-7.5h10.3v15H226.9z M256.7,160.4
		c-5.8,0-10.5-4.7-10.5-10.5v-38.4c0-5.8,4.7-10.5,10.5-10.5h0.7l17.8,59.4H256.7z"/>
	<path class="st0" d="M74,107.7c-12.7,0-23,10.3-23,23c0,12.7,10.3,23,23,23c12.7,0,23-10.3,23-23C97,118.1,86.7,107.7,74,107.7
		 M74,144.7c-7.7,0-14-6.3-14-14c0-7.7,6.3-14,14-14c7.7,0,14,6.3,14,14C88,138.4,81.8,144.7,74,144.7"/>
	<path class="st0" d="M181.7,107.7c-12.7,0-23,10.3-23,23c0,12.7,10.3,23,23,23c12.7,0,23-10.3,23-23
		C204.6,118.1,194.3,107.7,181.7,107.7 M181.7,144.7c-7.7,0-14-6.3-14-14c0-7.7,6.3-14,14-14c7.7,0,14,6.3,14,14
		C195.6,138.4,189.4,144.7,181.7,144.7"/>
</g>
</svg>
