<?xml version="1.0" encoding="utf-8"?>
<!-- Generator: Adobe Illustrator 23.0.2, SVG Export Plug-In . SVG Version: 6.00 Build 0)  -->
<svg version="1.1" id="Слой_1" xmlns="http://www.w3.org/2000/svg" xmlns:xlink="http://www.w3.org/1999/xlink" x="0px" y="0px"
	 viewBox="0 0 292.8 186.2" style="enable-background:new 0 0 292.8 186.2;" xml:space="preserve">
<style type="text/css">
	.st0{clip-path:url(#SVGID_2_);fill:#4D4D4D;}
</style>
<g>
	<defs>
		<rect id="SVGID_1_" width="292.8" height="186.2"/>
	</defs>
	<clipPath id="SVGID_2_">
		<use xlink:href="#SVGID_1_"  style="overflow:visible;"/>
	</clipPath>
	<path class="st0" d="M282.1,79.6c0.8-3.4,0.6-7-0.7-10.4c-1.7-4.4-5.1-8-9.4-9.9c-0.8-0.4-1.6-0.6-2.5-0.9l-46.5-46.5c0,0,0,0,0,0
		c-3.4-3.4-7.8-5.2-12.6-5.2c-4.8,0-9.2,1.9-12.6,5.2c0,0,0,0-0.1,0.1l-41.4,41.4L144.7,9h1.8c2.5,0,4.5-2,4.5-4.5S149,0,146.5,0
		H96.3C85.5,0,76.8,8.7,76.8,19.5v26H53.4V27.7c0-7.5-6.1-13.5-13.5-13.5c-2.5,0-4.5,2-4.5,4.5c0,2.5,2,4.5,4.5,4.5
		c2.5,0,4.5,2,4.5,4.5v17.8h-25c-1.2,0-2.3,0.5-3.2,1.3L2.1,60.9c-0.8,0.8-1.3,2-1.3,3.2V101c0,2.5,2,4.5,4.5,4.5h54.9l6.6,14.3
		H54.5c-5.5-3.4-11.9-5.3-18.7-5.3C16.1,114.5,0,130.6,0,150.3s16.1,35.8,35.8,35.8c15.9,0,29.4-10.4,34.1-24.8h59.8
		c4.6,14.4,18.2,24.8,34.1,24.8c19.8,0,35.8-16.1,35.8-35.8s-16.1-35.8-35.8-35.8c-6.9,0-13.3,1.9-18.7,5.3h-12.2l6.6-14.3h28.9
		c1.2,0,2.3-0.5,3.2-1.3l29.4-29.4c0.8-0.8,1.2-1.7,1.3-2.8l1.3-15.3l10.2-10.2l33.9,33.9c0.2,0.6,0.3,1.1,0.5,1.7
		c1.2,3,3.1,5.5,5.5,7.5l-12.2,27.6l-4.1-1.8c-2.3-1-4.9,0-5.9,2.3c-1,2.3,0,4.9,2.3,5.9l16.3,7.2c3.9,1.7,8.1,2.6,12.4,2.6
		c12.1,0,23-7.1,27.9-18.2C295.8,102.5,292.1,88.1,282.1,79.6 M261.2,83.6c-2.1-1-3.8-2.7-4.6-4.9c-0.8-2.2-0.8-4.6,0.2-6.7
		c1.4-3.2,4.6-5.2,8.1-5.2c1.2,0,2.4,0.3,3.6,0.8c2.1,1,3.8,2.7,4.6,4.9c0.8,2.2,0.8,4.6-0.2,6.7c-1.4,3.2-4.6,5.2-8.1,5.2
		C263.5,84.4,262.3,84.1,261.2,83.6 M148.4,58H132l-9.4-10.9c-0.9-1-2.1-1.6-3.4-1.6h-9.8V9h26L148.4,58z M85.8,19.5
		C85.8,13.7,90.5,9,96.3,9h4.1v36.5H85.8V19.5z M35.8,177.2C21,177.2,9,165.1,9,150.3c0-14.8,12-26.8,26.8-26.8
		c14.8,0,26.8,12,26.8,26.8C62.6,165.1,50.6,177.2,35.8,177.2 M71.6,152.3c0-0.7,0.1-1.3,0.1-2c0-8.1-2.7-15.5-7.2-21.5h70.7
		c-4.5,6-7.2,13.5-7.2,21.5c0,0.7,0,1.3,0.1,2H71.6z M190.6,150.3c0,14.8-12,26.8-26.8,26.8c-14.8,0-26.8-12-26.8-26.8
		c0-14.8,12-26.8,26.8-26.8C178.6,123.5,190.6,135.6,190.6,150.3 M76.7,119.8l-6.6-14.3h29.7c2.5,0,4.5-2,4.5-4.5
		c0-2.5-2-4.5-4.5-4.5h-90V66l11.5-11.5h95.9l9.4,10.9c0.9,1,2.1,1.6,3.4,1.6h17.2l-24.3,52.8H76.7z M196,51.4
		c-0.8,0.8-1.2,1.7-1.3,2.8l-1.3,15.3l-27,27h-22.9l14.8-32.1c0-0.1,0.1-0.2,0.1-0.3c0,0,0,0,0,0l45.8-45.8c0,0,0,0,0.1-0.1
		c1.7-1.6,3.9-2.5,6.2-2.5c2.4,0,4.6,0.9,6.2,2.6c1.7,1.7,2.6,3.9,2.6,6.2c0,2.4-0.9,4.6-2.6,6.2L196,51.4z M223.1,37.1
		c2.3-2.3,3.8-5,4.6-7.9l30,30c-4,1.8-7.3,4.9-9.2,9.1c0,0,0,0.1,0,0.1l-28.3-28.3L223.1,37.1z M282,111.5
		c-3.5,7.8-11.2,12.8-19.7,12.8c-3,0-5.9-0.6-8.7-1.9l-3.9-1.8l12.2-27.6c1,0.2,1.9,0.3,2.9,0.3c5,0,9.7-2.1,13-5.6
		C283.7,93.9,285.7,103.2,282,111.5"/>
	<path class="st0" d="M35.8,132.5c-9.8,0-17.8,8-17.8,17.8c0,9.8,8,17.8,17.8,17.8s17.8-8,17.8-17.8
		C53.6,140.5,45.6,132.5,35.8,132.5 M35.8,159.2c-4.9,0-8.8-4-8.8-8.8c0-4.9,4-8.8,8.8-8.8s8.8,4,8.8,8.8
		C44.6,155.2,40.7,159.2,35.8,159.2"/>
	<path class="st0" d="M163.8,168.2c9.8,0,17.8-8,17.8-17.8c0-9.8-8-17.8-17.8-17.8c-9.8,0-17.8,8-17.8,17.8
		C146,160.2,154,168.2,163.8,168.2 M163.8,141.5c4.9,0,8.8,4,8.8,8.8c0,4.9-4,8.8-8.8,8.8c-4.9,0-8.8-4-8.8-8.8
		C155,145.5,158.9,141.5,163.8,141.5"/>
	<path class="st0" d="M30.9,66.3c-2.5,0-4.5,2-4.5,4.5v10.7c0,2.5,2,4.5,4.5,4.5c2.5,0,4.5-2,4.5-4.5V70.8
		C35.4,68.3,33.4,66.3,30.9,66.3"/>
	<path class="st0" d="M48.9,66.3c-2.5,0-4.5,2-4.5,4.5v10.7c0,2.5,2,4.5,4.5,4.5c2.5,0,4.5-2,4.5-4.5V70.8
		C53.4,68.3,51.4,66.3,48.9,66.3"/>
	<path class="st0" d="M66.9,66.3c-2.5,0-4.5,2-4.5,4.5v10.7c0,2.5,2,4.5,4.5,4.5c2.5,0,4.5-2,4.5-4.5V70.8
		C71.4,68.3,69.4,66.3,66.9,66.3"/>
</g>
</svg>
