<?xml version="1.0" encoding="utf-8"?>
<!-- Generator: Adobe Illustrator 23.0.2, SVG Export Plug-In . SVG Version: 6.00 Build 0)  -->
<svg version="1.1" id="Слой_1" xmlns="http://www.w3.org/2000/svg" xmlns:xlink="http://www.w3.org/1999/xlink" x="0px" y="0px"
	 viewBox="0 0 258.9 176.3" style="enable-background:new 0 0 258.9 176.3;" xml:space="preserve">
<style type="text/css">
	.st0{clip-path:url(#SVGID_2_);fill:#4D4D4D;}
</style>
<g>
	<defs>
		<rect id="SVGID_1_" width="258.9" height="176.3"/>
	</defs>
	<clipPath id="SVGID_2_">
		<use xlink:href="#SVGID_1_"  style="overflow:visible;"/>
	</clipPath>
	<path class="st0" d="M126.2,85.6c2.5,0,4.5-2,4.5-4.5V70.4c0-2.5-2-4.5-4.5-4.5c-2.5,0-4.5,2-4.5,4.5v10.7
		C121.7,83.6,123.8,85.6,126.2,85.6"/>
	<path class="st0" d="M144.2,85.6c2.5,0,4.5-2,4.5-4.5V70.4c0-2.5-2-4.5-4.5-4.5c-2.5,0-4.5,2-4.5,4.5v10.7
		C139.7,83.6,141.8,85.6,144.2,85.6"/>
	<path class="st0" d="M162.2,85.6c2.5,0,4.5-2,4.5-4.5V70.4c0-2.5-2-4.5-4.5-4.5c-2.5,0-4.5,2-4.5,4.5v10.7
		C157.7,83.6,159.8,85.6,162.2,85.6"/>
	<path class="st0" d="M50.5,76.6H65c2.5,0,4.5-2,4.5-4.5c0-2.5-2-4.5-4.5-4.5H50.5c-2.5,0-4.5,2-4.5,4.5C46,74.6,48,76.6,50.5,76.6"
		/>
	<path class="st0" d="M46,90.1c0,2.5,2,4.5,4.5,4.5h33.8c2.5,0,4.5-2,4.5-4.5c0-2.5-2-4.5-4.5-4.5H50.5C48,85.6,46,87.6,46,90.1"/>
	<path class="st0" d="M254.4,164.5h-3.9l-14.6-52.1c-0.5-1.9-2.3-3.3-4.3-3.3h-4.1c-10.8,0-19.5,8.7-19.5,19.5v2.1h-3.4l-3.7-4.3
		c-0.9-1-2.1-1.6-3.4-1.6H188c-1.5-2.8-3.4-5.4-5.6-7.8l14.2-8.6c1.3-0.8,2.2-2.3,2.2-3.8V88.1c0-2.5-2-4.5-4.5-4.5h-8.1l0-18.6
		c0-10.8-8.7-19.5-19.5-19.5h-17.8V27.1c0-7.5-6.1-13.5-13.5-13.5c-2.5,0-4.5,2-4.5,4.5c0,2.5,2,4.5,4.5,4.5c2.5,0,4.5,2,4.5,4.5
		v18.4h-21.7L105.6,9h1.4c2.5,0,4.5-2,4.5-4.5S109.4,0,107,0H56.7C45.9,0,37.2,8.7,37.2,19.5v28.1l-10,6.7c-1.2,0.8-2,2.2-2,3.7
		v49.7C10.7,111.9,0,125.4,0,141.3c0,19.3,15.7,35,35,35h122c13.4,0,25-7.5,30.9-18.6h20.4c1.7,9,9.7,15.8,19.1,15.8h26.9
		c2.5,0,4.5-2,4.5-4.5S256.9,164.5,254.4,164.5 M109.8,49.1l-6.1,8.9H89.4L80,47.1c-0.9-1-2.1-1.6-3.4-1.6h-6.8V9h26.3L109.8,49.1z
		 M56.7,9h4.1v36.5H46.2v-26C46.2,13.7,50.9,9,56.7,9 M34.2,60.4l8.8-5.9h31.5L84,65.4c0.9,1,2.1,1.6,3.4,1.6h18.7
		c1.5,0,2.9-0.7,3.7-2l7.2-10.5h49.6c5.8,0,10.5,4.7,10.5,10.5l0,23.1c0,2.5,2,4.5,4.5,4.5h8.1v9.5l-14.9,9
		c-5.2-3.1-11.3-4.9-17.8-4.9H35c-0.3,0-0.5,0-0.8,0V60.4z M157.1,167.3H35c-14.4,0-26-11.7-26-26c0-14.4,11.7-26,26-26h122
		c14.4,0,26,11.7,26,26C183.1,155.6,171.4,167.3,157.1,167.3 M191.3,133.9h4.1l3.7,4.3c0.9,1,2.1,1.6,3.4,1.6h5.5v9h-16.7
		c0.5-2.4,0.8-4.9,0.8-7.4C192.1,138.7,191.8,136.2,191.3,133.9 M227.5,164.5c-5.8,0-10.5-4.7-10.5-10.5v-25.4
		c0-5.8,4.7-10.5,10.5-10.5h0.6l13,46.4H227.5z"/>
	<path class="st0" d="M157.1,130c-4.6,0-8.6,2.8-10.3,6.8H45.4c-1.7-4-5.7-6.8-10.3-6.8c-6.2,0-11.3,5.1-11.3,11.3
		c0,6.2,5.1,11.3,11.3,11.3c4.6,0,8.6-2.8,10.3-6.8h101.3c1.7,4,5.7,6.8,10.3,6.8c6.2,0,11.3-5.1,11.3-11.3
		C168.3,135.1,163.3,130,157.1,130"/>
</g>
</svg>
