<?xml version="1.0" encoding="utf-8"?>
<!-- Generator: Adobe Illustrator 23.0.2, SVG Export Plug-In . SVG Version: 6.00 Build 0)  -->
<svg version="1.1" id="Слой_1" xmlns="http://www.w3.org/2000/svg" xmlns:xlink="http://www.w3.org/1999/xlink" x="0px" y="0px"
	 viewBox="0 0 369.6 166.4" style="enable-background:new 0 0 369.6 166.4;" xml:space="preserve">
<style type="text/css">
	.st0{clip-path:url(#SVGID_2_);fill:#4D4D4D;}
</style>
<g>
	<defs>
		<rect id="SVGID_1_" width="369.6" height="166.4"/>
	</defs>
	<clipPath id="SVGID_2_">
		<use xlink:href="#SVGID_1_"  style="overflow:visible;"/>
	</clipPath>
	<path class="st0" d="M365.1,153.8h-4.3l-21.3-52.6c-0.7-1.7-2.3-2.8-4.2-2.8h-4.1c-5.7,0-10.7,2.4-14.3,6.3
		c-6.4-6.1-15.1-9.9-24.7-9.9c-1.1,0-2.2,0.1-3.3,0.2l-25.9-12v-8.5c0-2.5-2-4.5-4.5-4.5c-2.5,0-4.5,2-4.5,4.5v4.3l-43.8-20.3
		c-0.6-0.3-1.2-0.4-1.9-0.4h-44.8L150.6,9h1.8c2.5,0,4.5-2,4.5-4.5c0-2.5-2-4.5-4.5-4.5H98.1c-2,0-3.8,1.4-4.3,3.3
		c-3.4,12.7-8.3,33.9-10.2,42.2H72.6V27.7c0-7.5-6.1-13.5-13.5-13.5c-2.5,0-4.5,2-4.5,4.5c0,2.5,2,4.5,4.5,4.5c2.5,0,4.5,2,4.5,4.5
		v17.8h-34c-1.2,0-2.3,0.5-3.2,1.3L12.4,60.9c-0.8,0.8-1.3,2-1.3,3.2v40.6C4.3,111.3,0,120.4,0,130.6c0,19.8,16.1,35.8,35.8,35.8
		c18.2,0,33.3-13.7,35.5-31.3h11c2.2,17.6,17.3,31.3,35.5,31.3c19.8,0,35.8-16.1,35.8-35.8c0-3.8-0.6-7.5-1.7-11l9.7-21.7l11,9.8
		v5.8l-8.2,6.4c-1.1,0.9-1.7,2.2-1.7,3.5v27.2c0,2.5,2,4.5,4.5,4.5h75.7c2.5,0,4.5-2,4.5-4.5v-15.9c0-1.8-1-3.4-2.6-4.1L206,113.2
		V97.3l51.6,23.9c-0.8,3-1.3,6.1-1.3,9.4c0,19.8,16.1,35.8,35.8,35.8c9.6,0,18.3-3.8,24.7-9.9c3.6,3.9,8.6,6.3,14.3,6.3h33.9
		c2.5,0,4.5-2,4.5-4.5S367.6,153.8,365.1,153.8 M154.2,58l-30.3,0l-8.6-10V9h26L154.2,58z M101.6,9h4.7v36.5H92.8
		C94.8,37.1,98.6,20.7,101.6,9 M35.8,157.4C21,157.4,9,145.4,9,130.6c0-14.8,12-26.8,26.8-26.8c14.8,0,26.8,12,26.8,26.8
		C62.6,145.4,50.6,157.4,35.8,157.4 M117.8,157.4c-14.8,0-26.8-12-26.8-26.8c0-14.8,12-26.8,26.8-26.8c14.8,0,26.8,12,26.8,26.8
		C144.7,145.4,132.6,157.4,117.8,157.4 M155.6,89.5l-8.9,19.8c-6.5-8.8-17-14.6-28.8-14.6c-18.2,0-33.3,13.7-35.5,31.3h-11
		C69.1,108.4,54,94.8,35.8,94.8c-5.7,0-11,1.3-15.8,3.7V66l11.5-11.5H109l9.4,10.9c0.9,1,2.1,1.6,3.4,1.6l33.7,0V89.5z M171.9,95
		H197v16.6h-15.4v-5.9c0-1.3-0.5-2.5-1.5-3.4L171.9,95z M238.4,146.2h-66.7v-20.6l6.5-5.1h22.4l37.8,17.2V146.2z M204,86.4
		c-0.6-0.3-1.2-0.4-1.9-0.4h-37.6V67h42.7l68.5,31.8c-6.2,3.2-11.3,8.1-14.7,14.1L204,86.4z M292.2,157.4c-14.8,0-26.8-12-26.8-26.8
		c0-14.8,12-26.8,26.8-26.8c14.8,0,26.8,12,26.8,26.8C319,145.4,307,157.4,292.2,157.4 M331.2,153.8c-3.5,0-6.6-1.7-8.5-4.4
		c3.4-5.5,5.3-11.9,5.3-18.8c0-6.9-2-13.3-5.4-18.8c1.9-2.7,5-4.4,8.5-4.4h1l18.8,46.4H331.2z"/>
	<path class="st0" d="M50.1,66.3c-2.5,0-4.5,2-4.5,4.5v10.7c0,2.5,2,4.5,4.5,4.5c2.5,0,4.5-2,4.5-4.5V70.8
		C54.6,68.3,52.6,66.3,50.1,66.3"/>
	<path class="st0" d="M68.1,66.3c-2.5,0-4.5,2-4.5,4.5v10.7c0,2.5,2,4.5,4.5,4.5c2.5,0,4.5-2,4.5-4.5V70.8
		C72.6,68.3,70.6,66.3,68.1,66.3"/>
	<path class="st0" d="M86.1,66.3c-2.5,0-4.5,2-4.5,4.5v10.7c0,2.5,2,4.5,4.5,4.5c2.5,0,4.5-2,4.5-4.5V70.8
		C90.6,68.3,88.6,66.3,86.1,66.3"/>
	<path class="st0" d="M35.8,112.8c-9.8,0-17.8,8-17.8,17.8c0,9.8,8,17.8,17.8,17.8c9.8,0,17.8-8,17.8-17.8
		C53.6,120.8,45.6,112.8,35.8,112.8 M35.8,139.4c-4.9,0-8.8-4-8.8-8.8c0-4.9,4-8.8,8.8-8.8c4.9,0,8.8,4,8.8,8.8
		C44.6,135.4,40.7,139.4,35.8,139.4"/>
	<path class="st0" d="M117.8,112.8c-9.8,0-17.8,8-17.8,17.8c0,9.8,8,17.8,17.8,17.8s17.8-8,17.8-17.8
		C135.7,120.8,127.7,112.8,117.8,112.8 M117.8,139.4c-4.9,0-8.8-4-8.8-8.8c0-4.9,4-8.8,8.8-8.8c4.9,0,8.8,4,8.8,8.8
		C126.7,135.4,122.7,139.4,117.8,139.4"/>
	<path class="st0" d="M292.2,112.8c-9.8,0-17.8,8-17.8,17.8c0,9.8,8,17.8,17.8,17.8c9.8,0,17.8-8,17.8-17.8
		C310,120.8,302,112.8,292.2,112.8 M292.2,139.4c-4.9,0-8.8-4-8.8-8.8c0-4.9,4-8.8,8.8-8.8c4.9,0,8.8,4,8.8,8.8
		C301,135.4,297.1,139.4,292.2,139.4"/>
</g>
</svg>
